<svg width="123" height="68" viewBox="0 0 123 68" fill="none" xmlns="http://www.w3.org/2000/svg">
<g filter="url(#filter0_d_129_78)">
<ellipse cx="61.5" cy="30" rx="54.5" ry="27" fill="#00405F"/>
<path d="M61.5 58.5C76.7302 58.5 90.5927 55.4449 100.703 50.436C110.72 45.4735 117.5 38.3374 117.5 30C117.5 21.6626 110.72 14.5265 100.703 9.56402C90.5927 4.55514 76.7302 1.5 61.5 1.5C46.2698 1.5 32.4073 4.55514 22.2968 9.56402C12.28 14.5265 5.5 21.6626 5.5 30C5.5 38.3374 12.28 45.4735 22.2968 50.436C32.4073 55.4449 46.2698 58.5 61.5 58.5Z" stroke="#D8D463" stroke-width="3"/>
</g>
<path d="M28.6885 38V20.7266H32.2627V27.3125H39.0127V20.7266H42.5986V38H39.0127V30.2891H32.2627V38H28.6885ZM50.7783 31.4727H55.1611L53.0049 24.6758L50.7783 31.4727ZM51.001 20.7266H55.0791L61.1963 38H57.2822L56.1689 34.4492H49.8057L48.6104 38H44.8369L51.001 20.7266ZM63.3994 20.7266H67.0674V31.3438C67.0674 32.5312 67.208 33.3984 67.4893 33.9453C67.9268 34.9141 68.8799 35.3984 70.3486 35.3984C71.8096 35.3984 72.7588 34.9141 73.1963 33.9453C73.4775 33.3984 73.6182 32.5312 73.6182 31.3438V20.7266H77.2861V31.3438C77.2861 33.1797 77.001 34.6094 76.4307 35.6328C75.3682 37.5078 73.3408 38.4453 70.3486 38.4453C67.3564 38.4453 65.3252 37.5078 64.2549 35.6328C63.6846 34.6094 63.3994 33.1797 63.3994 31.3438V20.7266ZM84.3525 23.7266V28.3672H88.4424C89.2549 28.3672 89.8643 28.2734 90.2705 28.0859C90.9893 27.7578 91.3486 27.1094 91.3486 26.1406C91.3486 25.0938 91.001 24.3906 90.3057 24.0312C89.915 23.8281 89.3291 23.7266 88.5479 23.7266H84.3525ZM89.2979 20.7266C90.5088 20.75 91.4385 20.8984 92.0869 21.1719C92.7432 21.4453 93.2979 21.8477 93.751 22.3789C94.126 22.8164 94.4229 23.3008 94.6416 23.832C94.8604 24.3633 94.9697 24.9688 94.9697 25.6484C94.9697 26.4688 94.7627 27.2773 94.3486 28.0742C93.9346 28.8633 93.251 29.4219 92.2979 29.75C93.0947 30.0703 93.6572 30.5273 93.9854 31.1211C94.3213 31.707 94.4893 32.6055 94.4893 33.8164V34.9766C94.4893 35.7656 94.5205 36.3008 94.583 36.582C94.6768 37.0273 94.8955 37.3555 95.2393 37.5664V38H91.2666C91.1572 37.6172 91.0791 37.3086 91.0322 37.0742C90.9385 36.5898 90.8877 36.0938 90.8799 35.5859L90.8564 33.9805C90.8408 32.8789 90.6377 32.1445 90.2471 31.7773C89.8643 31.4102 89.1416 31.2266 88.0791 31.2266H84.3525V38H80.8252V20.7266H89.2979Z" fill="#D8D463"/>
<defs>
<filter id="filter0_d_129_78" x="0" y="0" width="123" height="68" filterUnits="userSpaceOnUse" color-interpolation-filters="sRGB">
<feFlood flood-opacity="0" result="BackgroundImageFix"/>
<feColorMatrix in="SourceAlpha" type="matrix" values="0 0 0 0 0 0 0 0 0 0 0 0 0 0 0 0 0 0 127 0" result="hardAlpha"/>
<feOffset dy="4"/>
<feGaussianBlur stdDeviation="2"/>
<feComposite in2="hardAlpha" operator="out"/>
<feColorMatrix type="matrix" values="0 0 0 0 0 0 0 0 0 0 0 0 0 0 0 0 0 0 0.25 0"/>
<feBlend mode="normal" in2="BackgroundImageFix" result="effect1_dropShadow_129_78"/>
<feBlend mode="normal" in="SourceGraphic" in2="effect1_dropShadow_129_78" result="shape"/>
</filter>
</defs>
</svg>
