<svg width="375" height="812" viewBox="0 0 375 812" fill="none" xmlns="http://www.w3.org/2000/svg">
<rect width="375" height="812" fill="white"/>
<circle cx="186.394" cy="405.396" r="23.8966" fill="url(#paint0_linear_253_1212)"/>
<path fill-rule="evenodd" clip-rule="evenodd" d="M187.003 458.5C215.998 458.5 239.503 434.995 239.503 406C239.503 377.005 215.998 353.5 187.003 353.5C158.008 353.5 134.503 377.005 134.503 406C134.503 434.995 158.008 458.5 187.003 458.5ZM187 441.921C206.838 441.921 222.921 425.839 222.921 406C222.921 386.162 206.838 370.079 187 370.079C167.161 370.079 151.079 386.162 151.079 406C151.079 425.839 167.161 441.921 187 441.921Z" fill="url(#paint1_linear_253_1212)"/>
<path fill-rule="evenodd" clip-rule="evenodd" d="M172.409 348.522C172.562 349.034 173.092 349.334 173.613 349.211C177.913 348.201 182.396 347.667 187.004 347.667C219.22 347.667 245.337 373.784 245.337 406.001C245.337 438.217 219.22 464.334 187.004 464.334C154.787 464.334 128.67 438.217 128.67 406.001C128.67 403.553 128.821 401.141 129.114 398.773C129.178 398.255 128.842 397.771 128.333 397.657L111.999 394.028C111.436 393.903 110.884 394.277 110.802 394.848C110.273 398.489 110 402.212 110 406C110 448.526 144.474 483 187 483C229.526 483 264 448.526 264 406C264 363.474 229.526 329 187 329C180.556 329 174.298 329.791 168.316 331.283C167.767 331.419 167.449 331.988 167.611 332.53L172.409 348.522Z" fill="url(#paint2_linear_253_1212)"/>
<defs>
<linearGradient id="paint0_linear_253_1212" x1="186.394" y1="381.81" x2="186.394" y2="429.293" gradientUnits="userSpaceOnUse">
<stop stop-color="#5258E8"/>
<stop offset="1" stop-color="#787DFF"/>
</linearGradient>
<linearGradient id="paint1_linear_253_1212" x1="187.003" y1="354.182" x2="187.003" y2="458.5" gradientUnits="userSpaceOnUse">
<stop stop-color="#5258E8"/>
<stop offset="1" stop-color="#787DFF"/>
</linearGradient>
<linearGradient id="paint2_linear_253_1212" x1="187" y1="330" x2="187" y2="483" gradientUnits="userSpaceOnUse">
<stop stop-color="#5258E8"/>
<stop offset="1" stop-color="#787DFF"/>
</linearGradient>
</defs>
</svg>
